<svg xmlns="http://www.w3.org/2000/svg" viewBox="0 0 38 36">
  <path id="star_copy_2" data-name="star copy 2" class="cls-1" d="M36.124,12.142l-9.794-1.07a1.668,1.668,0,0,1-1.319-.951L20.973,1.248a2.13,2.13,0,0,0-3.878,0l-4.078,8.874a1.646,1.646,0,0,1-1.319.951L1.9,12.142A2.09,2.09,0,0,0,.7,15.786L7.98,22.362a1.633,1.633,0,0,1,.52,1.545l-2,9.547a2.133,2.133,0,0,0,3.158,2.258l8.555-4.833a1.719,1.719,0,0,1,1.639,0l8.555,4.833a2.133,2.133,0,0,0,3.158-2.258l-2-9.547a1.524,1.524,0,0,1,.48-1.545l7.276-6.576A2.113,2.113,0,0,0,36.124,12.142Z"/>
</svg>
